<svg width="278" height="484" viewBox="0 0 278 484" fill="none" xmlns="http://www.w3.org/2000/svg">
<path d="M167 79L165 40L163 1L140.75 64.25L118.5 127.5L169 105L167 79Z" fill="#D9D9D9"/>
<path d="M118.5 40L74.5 56L78 104L114 64.5L118.5 40Z" fill="#D9D9D9"/>
<path d="M216 47.5L163 1L165 40L200.5 58L216 47.5Z" fill="#D9D9D9"/>
<path d="M167 79L219.5 86.5L200.5 58L165 40L167 79Z" fill="#D9D9D9"/>
<path d="M228.5 99.5L216 47.5L200.5 58L219.5 86.5L215.031 132L264 146L228.5 99.5Z" fill="#D9D9D9"/>
<path d="M169 105L118.5 127.5L153.5 126H174L214 142.5L169 105Z" fill="#D9D9D9"/>
<path d="M78 104L118.5 127.5L140.75 64.25L114 64.5L78 104Z" fill="#C3C8D1"/>
<path d="M74.5 56L45 127.5L49.5 150.5L118.5 127.5L78 104L74.5 56Z" fill="#C3C8D1"/>
<path d="M163 1L118.5 40L114 64.5L140.75 64.25L163 1Z" fill="#C3C8D1"/>
<path d="M219.5 86.5L167 79L169 105L214 142.5L215.031 132L219.5 86.5Z" fill="#C3C8D1"/>
<path d="M277 168L264 146L215.031 132L214 142.5L223.5 166.5L243.53 184.5L271.906 210L277 168Z" fill="#C3C8D1"/>
<path d="M223.5 166.5L214 142.5L174 126H153.5L184 146L223.5 166.5Z" fill="#C3C8D1"/>
<path d="M174 165L184 146L153.5 126L121.5 157.5L174 165Z" fill="#C3C8D1"/>
<path d="M49.5 150.5L121.5 157.5L153.5 126L118.5 127.5L49.5 150.5Z" fill="#C3C8D1"/>
<path d="M16.5 147.5L0.5 180L1.18312 196.5L23 186.5L49.5 150.5L45 127.5L16.5 147.5Z" fill="#C3C8D1"/>
<path d="M121.5 157.5L49.5 150.5L23 186.5L108.5 191L121.5 157.5Z" fill="#D9D9D9"/>
<path d="M223.5 166.5L184 146L174 165L187.639 207.5L238 218L243.53 184.5L223.5 166.5Z" fill="#D9D9D9"/>
<path d="M238 218L264.203 273.5L271.906 210L243.53 184.5L238 218Z" fill="#D9D9D9"/>
<path d="M174 165L121.5 157.5L108.5 191L187.639 207.5L174 165Z" fill="#C3C8D1"/>
<path d="M3.95701 263.5L45 207.5L23 186.5L1.18312 196.5L3.95701 263.5Z" fill="#D9D9D9"/>
<path d="M138 227L175.5 230.5L238 218L187.639 207.5L108.5 191L138 227Z" fill="#D9D9D9"/>
<path d="M7 337L45.5 447.5L60.5 434L49 303L7 337Z" fill="#D9D9D9"/>
<path d="M45.5 447.5L83 466.5L154 381.5L60.5 434L45.5 447.5Z" fill="#D9D9D9"/>
<path d="M204 457.5L221.481 421.5L174 444.5L204 457.5Z" fill="#D9D9D9"/>
<path d="M226.094 412L254.5 353.5L209.5 388L226.094 412Z" fill="#C3C8D1"/>
<path d="M175.5 230.5L138 227L95.5 281C121.5 297 173.6 329.4 174 331L190 386L233 332.5L175.5 230.5Z" fill="#C3C8D1"/>
<path d="M23 186.5L45 207.5L138 227L108.5 191L23 186.5Z" fill="#C3C8D1"/>
<path d="M3.95701 263.5L7 337L49 303L45 207.5L3.95701 263.5Z" fill="#C3C8D1"/>
<path d="M95.5 281L138 227L45 207.5L49 303C50.2 301.8 80.5 287.833 95.5 281Z" fill="#C3C8D1"/>
<path d="M238 218L175.5 230.5L233 332.5L254.5 353.5L264.203 273.5L238 218Z" fill="#C3C8D1"/>
<path d="M174 331C173.6 329.4 121.5 297 95.5 281L154 381.5L190 386L174 331Z" fill="#C3C8D1"/>
<path d="M95.5 281C80.5 287.833 50.2 301.8 49 303L60.5 434L154 381.5L95.5 281Z" fill="#C3C8D1"/>
<path d="M83 466.5H116L174 444.5L154 381.5L83 466.5Z" fill="#C3C8D1"/>
<path d="M254.5 353.5L233 332.5L190 386L154 381.5L174 444.5L221.481 421.5L226.094 412L209.5 388L254.5 353.5Z" fill="#C3C8D1"/>
<path d="M164.5 483L204 457.5L174 444.5L116 466.5L164.5 483Z" fill="#C3C8D1"/>
<path d="M163 1L216 47.5M163 1L118.5 40M163 1L165 40M163 1L140.75 64.25M216 47.5L228.5 99.5L264 146M216 47.5L200.5 58M264 146L277 168L271.906 210M264 146L215.031 132M254.5 353.5L264.203 273.5M254.5 353.5L233 332.5M254.5 353.5L226.094 412M254.5 353.5L209.5 388L226.094 412M204 457.5L164.5 483L116 466.5M204 457.5L221.481 421.5M204 457.5L174 444.5M116 466.5H83M116 466.5L174 444.5M83 466.5L45.5 447.5M83 466.5L154 381.5M45.5 447.5L7 337M45.5 447.5L60.5 434M7 337L3.95701 263.5M7 337L49 303M45 127.5L16.5 147.5L0.5 180L1.18312 196.5M45 127.5L74.5 56M45 127.5L49.5 150.5M74.5 56L118.5 40M74.5 56L78 104M118.5 40L114 64.5M167 79L219.5 86.5M167 79L165 40M167 79L169 105M219.5 86.5L200.5 58M219.5 86.5L215.031 132M200.5 58L165 40M118.5 127.5L78 104M118.5 127.5L140.75 64.25M118.5 127.5L169 105M118.5 127.5L49.5 150.5M118.5 127.5L153.5 126M78 104L114 64.5M114 64.5L140.75 64.25M169 105L214 142.5M214 142.5L215.031 132M214 142.5L223.5 166.5M214 142.5L174 126H153.5M223.5 166.5L184 146M223.5 166.5L243.53 184.5M184 146L174 165M184 146L153.5 126M174 165L121.5 157.5M174 165L187.639 207.5M121.5 157.5L49.5 150.5M121.5 157.5L153.5 126M121.5 157.5L108.5 191M49.5 150.5L23 186.5M3.95701 263.5L45 207.5M3.95701 263.5L1.18312 196.5M45 207.5L23 186.5M45 207.5L49 303M45 207.5L138 227M23 186.5L1.18312 196.5M23 186.5L108.5 191M138 227L175.5 230.5M138 227L95.5 281M138 227L108.5 191M175.5 230.5L238 218M175.5 230.5L233 332.5M238 218L264.203 273.5M238 218L187.639 207.5M238 218L243.53 184.5M264.203 273.5L271.906 210M233 332.5L190 386M190 386L174 331C173.6 329.4 121.5 297 95.5 281M190 386L154 381.5M95.5 281C80.5 287.833 50.2 301.8 49 303M95.5 281L154 381.5M49 303L60.5 434M60.5 434L154 381.5M154 381.5L174 444.5M174 444.5L221.481 421.5M221.481 421.5L226.094 412M271.906 210L243.53 184.5M108.5 191L187.639 207.5" stroke="#979797" stroke-width="0.5"/>
</svg>
